<svg xmlns="http://www.w3.org/2000/svg" xml:space="preserve" viewBox="0 0 820 206"><path d="M590 121c3 2 2 7-1 7v-4l-3 7c2 0 1 4-1 3v-2h-1l-2 7h-1c-1-6 4-11 6-17l1-1h2zm5 7 1 1-1-1zm11-108c3 1 7 4 10 4l2-1c3 2 8-1 12 0 3-2 7-2 10 0l3-1 2 1-1 2c2 1 2 0 4-1h2l1-2c7 5 6-2 9 9 8 1 9 12 7 18-3-1-8 2-11 2h-10l-9-2c-7-2-11 0-12 8-4 2-5 7-8 8l-1 1c1 2 3 2 5 3 7 6 13 13 23 14 4 2 7 7 10 10l2 3 10-9c3-1 4-3 4-6l3 1c2-2 6 0 8-2 4 7 9 4 13 8 1 3-5 6-7 8-2 4-5 1-6 4-4-3-11-1-10 5-1 0-7 0-5 3 1 2 6-1 6 0l1 1v1h-9v3l-6 3c3-7-2-6-2 0-3 0-3 4-4 6-2 4-8 15 1 15 9 3 14 12 23 15 2 1 0 2 4 2l2 3 5 5 4 2c1 4 5 6 5 10l2 1c2 3 1 17-5 13l-2-1-1 7c-5-1-11-9-14-12-4-4-9-7-11-12-6-3-7-10-11-15-3-3-3-7-6-10-2-3-5 4-6 3-1-8-8 1 1 3v1l-1-1-3 5 3 4c-5 1-1 3-2 4-4 0-6 3-10 3-3 1-1 4-3 6-1 3-5 3-5 7 0 2-2 1-3 2l-3-3c0-1-6 3-6-1-4 0-2 5-3 5l-8-4 1-1-1-3 1-4h4c4-3 11-15 11-20 3-4 3-9 3-13 2-6 4-11 3-16 3-2 2-7 2-10 4-3 1-7-1-9 0-3-2-5-3-7 0-3-2-4-3-6l-1-5-2-9-2-3-8 14c-4 2-5 7-8 9v2h-1c0-2-4-8-5-4h-1c-1-4 0-5 3-7 0-3 2-5 4-8 2-4 4-8 8-11v-1l5-6c1-2 9-13 6-15l-4-1-2-3h-7c-2-3-4 0-6-2s-1-5-1-7c-1-2-2-4 0-5 2-2 8 0 5-5 3 0 5 0 7-3zm-377 7 5 4-2 5c-2 2-2 9 1 7 2 0 0-4 3-5l1 4c-1 2-5 14-4 15 1 2 8 3 10 3l3-1 6 2c13 5 26 11 37 19 12 6 25 19 19 33 2 8-2 14-6 20-1 5-1 5-7 6l-2 1-2-2c-3 4-8 7-10 12-3 1-6 4-6 7h-1c-3-1-6 5-8 7l-6 3c-3 1 0-4-1-5-2-1-4 1-5 2-3-1-5 4-7 2l1-4c-2 0-2 1-3 2-4 2-6 1-5 6 1 1-2 1-3 2 0-1-1-5-3-4s1 4-1 5l-10 2c-3-1-3-5-5-5 0-2-1-4-4-5l-1-7c0-4-3-8-4-10 5-1 13 22 13 5l2 2c6-9-1-14-4-22-2-2-4-7-2-9l5 12c4-1 0-7-1-9l-2-5c3-3 4 6 7 6 2-6-5-14-2-14 2 0 3 7 4 7l2-2h1l2 4c1 3 4 14 10 12 3-2 3-6 5-8 3-3 5-8 8-10 0-2 2-6 4-6-6-3-4-14-10-15 0-1-9-7-11-7s-4 2-5 3c-4 0-6 2-9 4-3 13-6 9-14 14h-3l-3 4h-3c-3 6-7-4-10 3v7c0 4 2 7 3 10l11 30c6 0 5 7 3 11 2 3 3 5 3 8-1 4-5 1-7 6-4 3-9 3-12-1l-11-5h-1l-1-5c0-2 3-6-2-5 1-6-5-8-6-15v-4l-2-4v-6c-2-3-3-1-5-1l-1-2c1-2 2-5-1-6l-1-4c-3-2-6-1-10-1-1 0-2-2-3-1-8 4-4-6-13-1-3-4-7-3-10-6-7-3-17-7-16-16h-4c3-11 7-10 15-16 4 2 10-3 5-3h1l1-2c2 1 5 1 5-2 0 1 0 4 2 3 3 0 1-2 1-4 4 0 4 1 6-3h1l2 2v-2l2 1c8-12 3-6 4-19-1-3-3-7 0-9-1-3 2-4 2-6 1 3 4 5 7 8l10 11 4 1v1l1 1v-1c3-1 3 0 3-3 3-2 6-4 9-3 0 2 1 1 2 2h1l-1-2-1-1c2 0 5-2 6-1l-3 2c6 1 4-3 7-3 2 0 4 0 6-2l-1-2v1c4 1 3-3 4-5 0-2 2-4 1-5l-3-1 1-3 1-1 2 4 1-6c2-1 3-3 3-6l4-2c2-2 6-2 9-1l2-2zm403 6v2-2zM490 150l-2 7-13 8c-2 3-4 2-7 2-3 2-10 4-12 1h-18l-4 1c-3 0-6-3-9-2-4-2-5-4-6-8 0-2-3-3-3-4-2-2-3-12-2-15 9-13 11-29 21-40 5-5 1-14-2-19 0-3 1-13-3-13h-1 1c1-4 2-7-2-8l2-12c3-4-4-8-1-15 8 2 13 15 20 18 3 10 11 16 14 26l6-1c7-3 15-5 23-6 2 1 2 4 4 4l3 1 1 6-10 8c-2 2-4 5-7 5-2-4-14-6-17-1l1 8c2 5 3 10-4 9 0-4-3-5-6-5l-2 2-4 2c-9 1-14 5-17 13h-1v1l-1-1c-2 6-12 12-2 15l12 2c2-2 3 0 4 0-1 2 2 3 4 3 1-5 7 0 10 0l9-3c1 0 7 3 7 0 3 0 8 0 9-4-2 0-6 2-6-1 1-1 5-1 5-3l2 1c5-3 6 3 9 3 3 7-6 5-3 10l2-1v1m162-97c-2 1-2-1-1-2l1 2zm-17 2 1 1-1-1zM188 64l-7 1c0-2 3-3 4-3 2 0 2 1 3 2zm-11 1 1-1h-1v1zm16 2c0 3-6 3-6-1 2-1 5 0 6 1zm423 1v2h-1v-2h1zm-2 6c-2 0-2-2-2-4 2 1 3 2 2 4zM141 90v-1c-1-3 5-4 7-5 9 1-5 5-7 6zm484 9c-2 1-2-2-1-2v-1l1 3zm-364 6c0 1-1 4 1 4 1-1 1-3-1-4zm206-3v1h-1v-1h1zm211 0v1l-3 1v-1l3-1zm-417 21-1 3h1v-3zm-30 5c-1 1 1 5 2 5 1-3 0-5-2-5zm150-8c-1 1-1 5 1 5l-1-5zm1 6s-1 4 1 4v-4h-1zm107 9h-1v-3c2 0 1 2 1 3zm-106-2v2l2 1v-2l-2-1zm112 1v1-2 1zm-327 14h1v-3h-1v3zm56 1 1 1h-1v-1zm223-10h2l-2 1v-1zm210 3-3-1v-1c1 0 4 0 3 2zm-34-1c-2 2-1 4-1 7h1c1-2 2-5 0-7zm3 0v5h1c0-2 1-4-1-5zm-364 18 3-3c3 2-1 6-3 3zm-7-1v2l1 1v-3h1-2zm366-10v1c-2 0-4 5-1 5 1-1 3-4 1-6zm-238 5c-2 1 0 2 0 3h1l-1-3zm307 15-1-3c2 0 2 1 1 3zm-65 0h-1l1-3c2 1 1 2 0 3zm7 1h-1 1zm-10 5c-4 0-1-4 0-5 2 1 2 4 0 5zM370 21l-2 4c-1 0-2-7-7-6-3 0-3 2-5 4l-5 1v1s3 0 2 2c-1 1-3-1-3-2-4 0 0 6 0 7 0 4 2 7 1 10-4 0-4 0-6 3h-2c0 3-3 3-5 4v3c-7-2-4 8-2 11h9c0-5 5-3 8-4 6 4 7 15 8 22h-5l-5-2-1 2c-4-1-7 2-11 2-2 2-5 2-8 2-1 3-7 8-1 8 0 2 2 4 3 5 4 0 8 3 9 8l12 5 2 3 3 3 7 1c2 7 4 16-4 19h-1c-9-11-22-19-38-16-4 1-2 6-5 8 1 8 1 15 6 20-1 7 6 11 6 17 2 4 5 5 7 7 3 5 9 8 14 4 0-5 4-4 8-4 1 0 0-4 3-2l1-2c0-2-5 2-7 1-3-2 2-3 3-2 0-2 8-6 7 1h3c3 2 13 16 15 14s-8-21-1-24l1 2 2-4 1-5c1 0 2 3 3 2 3-5 12-13 6-19h-1c-1 2 1 5-1 7v1c0 2-2 3-4 2 0-3 3-5 2-9-4 2-4-4-5-7-2-3-1-8-2-12 4-4 13-4 15-10 6-6 3-4 3-12-3 0-3 0-3-2 0 0-5-1-4-5l-1-2c-7-2-13-9-10-16l6-1c3 0 8-6 9-9 4-9-11-16-17-19-2-7-5-21-12-24l-1 4zm-35 29h1-1zm38 29c-2 0-3-5-2-6 3 1 3 4 2 6zm7 1c-3 0-2-4-1-5l1 5zm-50 51c-3 1-1 3 1 3l-1-3zm-5 1v2-2zm5 3-1 1c-1 0-2 0-1-1h2zm15 11c1 2-2 4-3 5l-5 1c-3 0-2-9-7-9v-4l1-1c3 1 14 6 14 8zm5 2-3 3 1 1c2-2 4-2 2-4zm-7 3-2 3h2c2-1 2-2 0-3zm-6 5-1-2 1 2zm16 3c-2 1-2-1-1-2 1 0 2 1 1 2zm-9-1-1 1 2 1-1-2zm19 2v1l-5 2-5 1h-1 1l2 1c0 2-4 4-4 0l-3 2-2-1-3 2c-2-3 15-7 17-9l3 1zm-6 6-2-1 1-2 1 3zm-4 3-1 2c1 0 2-1 1-2zm23 5-1-3c2 1 2 2 1 3zM538 22c-2 6 6 8 7 13l5 17-1 19c1 4 7 7 4 11l-3-4-1 1v1l-2-10c-5-4-4-13-6-19l-2 5c-2 0-2-9-3-11 0-1-4-5-6-3l1 4-5 7-2 1c0 2 2 3 1 5l-2 4c-1 7 4 8 2 10l-3-1 1 2-3 11 1 1-1 7c-1 4 1 11-2 14 2 1 0 4 0 6-1 3 1 8-2 10v27l-1 5c0 2 2 5 0 7 5 1 5 4 2 2v14l2 4 3 1v-3h1l2 2 3-4 1-1-3 1v-3c2 0 0-3 0-4-1 0 1-2 4 1l2 9 5 1v-4l4 1v-1l-1-3c0-7-3-13-2-20l-1-9 2-4-2-2c2 0 1-10 2-12l3-1c1 1 1 4-1 5v1h3c0 6 7 1 8 8v-1h1c0-1 1-4 2-1v4l-1 1v1c5 0 4 6 1 5l-1 1c1 2 4 1 2 4 3 3 2 9 1 13v1h3c0 2-3 3-4 3v2h3c0 3 1 2-2 4l1 1h3c1 2-1 4-1 6v9c7-4 1 5 6 7 3 1 4-3 4-5 3 0 3 5 4 6h1l2-1-1-3c-1-3 4-3 4 1v1l2-7c-1-4-9-4-3-7 1-12 0-24-1-37h1c2 1 8-5 8 0h3c0-2 0-3 2-2h1c1 6-4 7-4 13h-2v8c3 1 3-6 7-5l-3 3c3 6 7-9 11-5l2-4c-3-1-2-3 1-4l1-2 4-1c-2-6 5-10 3-15-2-4-9-6-13-5-3 0-3-4-1-6l5-1-2-5c-5-2-3 1-8 2 0-4 0-4-2-7l-8 2v2c1 4-2 6-4 9 0 3-2 5-3 7h-1v-1c1-10-3-21-2-32 0-10-3-19 0-28 1-8 0-16 2-24-3-12-13-16-21-24-5-3-11-2-17-3v1zm15 46v-3 3zm-2 49 2 3h-2c-1-4-6-5-9-6-1-2 3-11 5-12l4-1c4 1 3 14 0 16zm-22 1c-2 0-1-3-1-3 1 0 2 2 1 3zm-1 3c-8 14 0 26 0 5 0-1 2-4 0-5zm-3 18c-2 4 0 7 4 7 0-3-2-6-4-7zm4 9c1 2-1 2-2 4v9c-4 0-4-12-3-15l5 2zm25 0v-1 1zm-27 17c-1 1 0 2 1 2l-1-2zm10 3c-1 1 0 4 1 4 1-2 0-3-1-4zm-3 8-1-1v-2c1 1 2 2 1 3zm-14-2h-1c1 2 1 3 3 3 0-2 0-3-2-3z"/></svg>